<?xml version="1.0" encoding="UTF-8" standalone="no"?>
<svg
   xmlns:dc="http://purl.org/dc/elements/1.1/"
   xmlns:cc="http://creativecommons.org/ns#"
   xmlns:rdf="http://www.w3.org/1999/02/22-rdf-syntax-ns#"
   xmlns:svg="http://www.w3.org/2000/svg"
   xmlns="http://www.w3.org/2000/svg"
   id="svg617"
   version="1.1"
   height="150"
   width="150">
  <metadata
     id="metadata623">
    <rdf:RDF>
      <cc:Work
         rdf:about="">
        <dc:format>image/svg+xml</dc:format>
        <dc:type
           rdf:resource="http://purl.org/dc/dcmitype/StillImage" />
        <dc:title></dc:title>
      </cc:Work>
    </rdf:RDF>
  </metadata>
  <defs
     id="defs621" />
  <desc
     id="desc2">https://bit.ly/2vInIad</desc>
  <g
     stroke="none"
     fill="black"
     id="elements">
    <a href="sz.html" target="_parent"><rect
       style="fill:#b7b7c8;stroke-width:1"
       id="rect1476"
       height="18"
       width="18"
       y="114"
       x="90" /></a>
    <a href="cz.html" target="_parent"><rect
       x="72"
       y="114"
       width="18"
       height="18"
       id="rect1478"
       style="fill:#ff0000;stroke-width:1" /></a>
    <a href="ni.html" target="_parent"><rect
       style="fill:#87aade;stroke-width:1"
       id="rect1480"
       height="18"
       width="18"
       y="114"
       x="54" /></a>
    <a href="fi.html" target="_parent"><rect
       x="90"
       y="96"
       width="18"
       height="18"
       id="rect1482"
       style="fill:#660080;stroke-width:1" /></a>
    <a href="ro.html" target="_parent"><rect
       style="fill:#dd55ff;stroke-width:1"
       id="rect1484"
       height="18"
       width="18"
       y="96"
       x="72" /></a>
    <a href="po.html" target="_parent"><rect
       x="54"
       y="96"
       width="18"
       height="18"
       id="rect1486"
       style="fill:#ff6600;stroke-width:1" /></a>
    <a href="kr.html" target="_parent"><rect
       style="fill:#eeffaa;stroke-width:0.99999994"
       id="rect1488"
       height="18"
       width="18"
       y="78"
       x="90" /></a>
    <a href="bi.html" target="_parent"><rect
       x="72"
       y="78"
       width="18"
       height="18"
       id="rect1490"
       style="fill:#c4c8b7;stroke-width:1" /></a>
    <a href="zi.html" target="_parent"><rect
       style="fill:#008000;stroke-width:1"
       id="rect1492"
       height="18"
       width="18"
       y="78"
       x="54" /></a>
    <rect
       id="rect4"
       height="6"
       width="6"
       y="0"
       x="0" />
    <rect
       id="rect6"
       height="6"
       width="6"
       y="0"
       x="6" />
    <rect
       id="rect8"
       height="6"
       width="6"
       y="0"
       x="12" />
    <rect
       id="rect10"
       height="6"
       width="6"
       y="0"
       x="18" />
    <rect
       id="rect12"
       height="6"
       width="6"
       y="0"
       x="24" />
    <rect
       id="rect14"
       height="6"
       width="6"
       y="0"
       x="30" />
    <rect
       id="rect16"
       height="6"
       width="6"
       y="0"
       x="36" />
    <rect
       id="rect18"
       height="6"
       width="6"
       y="0"
       x="54" />
    <rect
       id="rect20"
       height="6"
       width="6"
       y="0"
       x="60" />
    <rect
       id="rect22"
       height="6"
       width="6"
       y="0"
       x="78" />
    <rect
       id="rect24"
       height="6"
       width="6"
       y="0"
       x="84" />
    <rect
       id="rect26"
       height="6"
       width="6"
       y="0"
       x="108" />
    <rect
       id="rect28"
       height="6"
       width="6"
       y="0"
       x="114" />
    <rect
       id="rect30"
       height="6"
       width="6"
       y="0"
       x="120" />
    <rect
       id="rect32"
       height="6"
       width="6"
       y="0"
       x="126" />
    <rect
       id="rect34"
       height="6"
       width="6"
       y="0"
       x="132" />
    <rect
       id="rect36"
       height="6"
       width="6"
       y="0"
       x="138" />
    <rect
       id="rect38"
       height="6"
       width="6"
       y="0"
       x="144" />
    <rect
       id="rect40"
       height="6"
       width="6"
       y="6"
       x="0" />
    <rect
       id="rect42"
       height="6"
       width="6"
       y="6"
       x="36" />
    <rect
       id="rect44"
       height="6"
       width="6"
       y="6"
       x="48" />
    <rect
       id="rect46"
       height="6"
       width="6"
       y="6"
       x="60" />
    <rect
       id="rect48"
       height="6"
       width="6"
       y="6"
       x="78" />
    <rect
       id="rect50"
       height="6"
       width="6"
       y="6"
       x="90" />
    <rect
       id="rect52"
       height="6"
       width="6"
       y="6"
       x="108" />
    <rect
       id="rect54"
       height="6"
       width="6"
       y="6"
       x="144" />
    <rect
       id="rect56"
       height="6"
       width="6"
       y="12"
       x="0" />
    <rect
       id="rect58"
       height="6"
       width="6"
       y="12"
       x="12" />
    <rect
       id="rect60"
       height="6"
       width="6"
       y="12"
       x="18" />
    <rect
       id="rect62"
       height="6"
       width="6"
       y="12"
       x="24" />
    <rect
       id="rect64"
       height="6"
       width="6"
       y="12"
       x="36" />
    <rect
       id="rect66"
       height="6"
       width="6"
       y="12"
       x="54" />
    <rect
       id="rect68"
       height="6"
       width="6"
       y="12"
       x="66" />
    <rect
       id="rect70"
       height="6"
       width="6"
       y="12"
       x="72" />
    <rect
       id="rect72"
       height="6"
       width="6"
       y="12"
       x="90" />
    <rect
       id="rect74"
       height="6"
       width="6"
       y="12"
       x="108" />
    <rect
       id="rect76"
       height="6"
       width="6"
       y="12"
       x="120" />
    <rect
       id="rect78"
       height="6"
       width="6"
       y="12"
       x="126" />
    <rect
       id="rect80"
       height="6"
       width="6"
       y="12"
       x="132" />
    <rect
       id="rect82"
       height="6"
       width="6"
       y="12"
       x="144" />
    <rect
       id="rect84"
       height="6"
       width="6"
       y="18"
       x="0" />
    <rect
       id="rect86"
       height="6"
       width="6"
       y="18"
       x="12" />
    <rect
       id="rect88"
       height="6"
       width="6"
       y="18"
       x="18" />
    <rect
       id="rect90"
       height="6"
       width="6"
       y="18"
       x="24" />
    <rect
       id="rect92"
       height="6"
       width="6"
       y="18"
       x="36" />
    <rect
       id="rect94"
       height="6"
       width="6"
       y="18"
       x="54" />
    <rect
       id="rect96"
       height="6"
       width="6"
       y="18"
       x="60" />
    <rect
       id="rect98"
       height="6"
       width="6"
       y="18"
       x="72" />
    <rect
       id="rect100"
       height="6"
       width="6"
       y="18"
       x="84" />
    <rect
       id="rect102"
       height="6"
       width="6"
       y="18"
       x="90" />
    <rect
       id="rect104"
       height="6"
       width="6"
       y="18"
       x="96" />
    <rect
       id="rect106"
       height="6"
       width="6"
       y="18"
       x="108" />
    <rect
       id="rect108"
       height="6"
       width="6"
       y="18"
       x="120" />
    <rect
       id="rect110"
       height="6"
       width="6"
       y="18"
       x="126" />
    <rect
       id="rect112"
       height="6"
       width="6"
       y="18"
       x="132" />
    <rect
       id="rect114"
       height="6"
       width="6"
       y="18"
       x="144" />
    <rect
       id="rect116"
       height="6"
       width="6"
       y="24"
       x="0" />
    <rect
       id="rect118"
       height="6"
       width="6"
       y="24"
       x="12" />
    <rect
       id="rect120"
       height="6"
       width="6"
       y="24"
       x="18" />
    <rect
       id="rect122"
       height="6"
       width="6"
       y="24"
       x="24" />
    <rect
       id="rect124"
       height="6"
       width="6"
       y="24"
       x="36" />
    <rect
       id="rect126"
       height="6"
       width="6"
       y="24"
       x="48" />
    <rect
       id="rect128"
       height="6"
       width="6"
       y="24"
       x="72" />
    <rect
       id="rect130"
       height="6"
       width="6"
       y="24"
       x="78" />
    <rect
       id="rect132"
       height="6"
       width="6"
       y="24"
       x="84" />
    <rect
       id="rect134"
       height="6"
       width="6"
       y="24"
       x="90" />
    <rect
       id="rect136"
       height="6"
       width="6"
       y="24"
       x="108" />
    <rect
       id="rect138"
       height="6"
       width="6"
       y="24"
       x="120" />
    <rect
       id="rect140"
       height="6"
       width="6"
       y="24"
       x="126" />
    <rect
       id="rect142"
       height="6"
       width="6"
       y="24"
       x="132" />
    <rect
       id="rect144"
       height="6"
       width="6"
       y="24"
       x="144" />
    <rect
       id="rect146"
       height="6"
       width="6"
       y="30"
       x="0" />
    <rect
       id="rect148"
       height="6"
       width="6"
       y="30"
       x="36" />
    <rect
       id="rect150"
       height="6"
       width="6"
       y="30"
       x="54" />
    <rect
       id="rect152"
       height="6"
       width="6"
       y="30"
       x="84" />
    <rect
       id="rect154"
       height="6"
       width="6"
       y="30"
       x="90" />
    <rect
       id="rect156"
       height="6"
       width="6"
       y="30"
       x="108" />
    <rect
       id="rect158"
       height="6"
       width="6"
       y="30"
       x="144" />
    <rect
       id="rect160"
       height="6"
       width="6"
       y="36"
       x="0" />
    <rect
       id="rect162"
       height="6"
       width="6"
       y="36"
       x="6" />
    <rect
       id="rect164"
       height="6"
       width="6"
       y="36"
       x="12" />
    <rect
       id="rect166"
       height="6"
       width="6"
       y="36"
       x="18" />
    <rect
       id="rect168"
       height="6"
       width="6"
       y="36"
       x="24" />
    <rect
       id="rect170"
       height="6"
       width="6"
       y="36"
       x="30" />
    <rect
       id="rect172"
       height="6"
       width="6"
       y="36"
       x="36" />
    <rect
       id="rect174"
       height="6"
       width="6"
       y="36"
       x="48" />
    <rect
       id="rect176"
       height="6"
       width="6"
       y="36"
       x="60" />
    <rect
       id="rect178"
       height="6"
       width="6"
       y="36"
       x="72" />
    <rect
       id="rect180"
       height="6"
       width="6"
       y="36"
       x="84" />
    <rect
       id="rect182"
       height="6"
       width="6"
       y="36"
       x="96" />
    <rect
       id="rect184"
       height="6"
       width="6"
       y="36"
       x="108" />
    <rect
       id="rect186"
       height="6"
       width="6"
       y="36"
       x="114" />
    <rect
       id="rect188"
       height="6"
       width="6"
       y="36"
       x="120" />
    <rect
       id="rect190"
       height="6"
       width="6"
       y="36"
       x="126" />
    <rect
       id="rect192"
       height="6"
       width="6"
       y="36"
       x="132" />
    <rect
       id="rect194"
       height="6"
       width="6"
       y="36"
       x="138" />
    <rect
       id="rect196"
       height="6"
       width="6"
       y="36"
       x="144" />
    <rect
       id="rect198"
       height="6"
       width="6"
       y="42"
       x="54" />
    <rect
       id="rect200"
       height="6"
       width="6"
       y="42"
       x="72" />
    <rect
       id="rect202"
       height="6"
       width="6"
       y="42"
       x="78" />
    <rect
       id="rect204"
       height="6"
       width="6"
       y="48"
       x="0" />
    <rect
       id="rect206"
       height="6"
       width="6"
       y="48"
       x="12" />
    <rect
       id="rect208"
       height="6"
       width="6"
       y="48"
       x="24" />
    <rect
       id="rect210"
       height="6"
       width="6"
       y="48"
       x="36" />
    <rect
       id="rect212"
       height="6"
       width="6"
       y="48"
       x="54" />
    <rect
       id="rect214"
       height="6"
       width="6"
       y="48"
       x="66" />
    <rect
       id="rect216"
       height="6"
       width="6"
       y="48"
       x="120" />
    <rect
       id="rect218"
       height="6"
       width="6"
       y="48"
       x="138" />
    <rect
       id="rect220"
       height="6"
       width="6"
       y="54"
       x="0" />
    <rect
       id="rect222"
       height="6"
       width="6"
       y="54"
       x="24" />
    <rect
       id="rect224"
       height="6"
       width="6"
       y="54"
       x="30" />
    <rect
       id="rect226"
       height="6"
       width="6"
       y="54"
       x="48" />
    <rect
       id="rect228"
       height="6"
       width="6"
       y="54"
       x="72" />
    <rect
       id="rect230"
       height="6"
       width="6"
       y="54"
       x="102" />
    <rect
       id="rect232"
       height="6"
       width="6"
       y="54"
       x="108" />
    <rect
       id="rect234"
       height="6"
       width="6"
       y="54"
       x="144" />
    <rect
       id="rect236"
       height="6"
       width="6"
       y="60"
       x="0" />
    <rect
       id="rect238"
       height="6"
       width="6"
       y="60"
       x="12" />
    <rect
       id="rect240"
       height="6"
       width="6"
       y="60"
       x="24" />
    <rect
       id="rect242"
       height="6"
       width="6"
       y="60"
       x="36" />
    <rect
       id="rect244"
       height="6"
       width="6"
       y="60"
       x="42" />
    <rect
       id="rect246"
       height="6"
       width="6"
       y="60"
       x="48" />
    <rect
       id="rect248"
       height="6"
       width="6"
       y="60"
       x="60" />
    <rect
       id="rect250"
       height="6"
       width="6"
       y="60"
       x="66" />
    <rect
       id="rect252"
       height="6"
       width="6"
       y="60"
       x="84" />
    <rect
       id="rect254"
       height="6"
       width="6"
       y="60"
       x="132" />
    <rect
       id="rect256"
       height="6"
       width="6"
       y="60"
       x="138" />
    <rect
       id="rect258"
       height="6"
       width="6"
       y="60"
       x="144" />
    <rect
       id="rect260"
       height="6"
       width="6"
       y="66"
       x="0" />
    <rect
       id="rect262"
       height="6"
       width="6"
       y="66"
       x="42" />
    <rect
       id="rect264"
       height="6"
       width="6"
       y="66"
       x="60" />
    <rect
       id="rect266"
       height="6"
       width="6"
       y="66"
       x="72" />
    <rect
       id="rect268"
       height="6"
       width="6"
       y="66"
       x="78" />
    <rect
       id="rect270"
       height="6"
       width="6"
       y="66"
       x="84" />
    <rect
       id="rect272"
       height="6"
       width="6"
       y="66"
       x="96" />
    <rect
       id="rect274"
       height="6"
       width="6"
       y="66"
       x="114" />
    <rect
       id="rect276"
       height="6"
       width="6"
       y="66"
       x="138" />
    <rect
       id="rect278"
       height="6"
       width="6"
       y="72"
       x="0" />
    <rect
       id="rect280"
       height="6"
       width="6"
       y="72"
       x="36" />
    <rect
       id="rect282"
       height="6"
       width="6"
       y="72"
       x="48" />
    <rect
       id="rect284"
       height="6"
       width="6"
       y="72"
       x="54" />
    <rect
       id="rect286"
       height="6"
       width="6"
       y="72"
       x="60" />
    <rect
       id="rect288"
       height="6"
       width="6"
       y="72"
       x="78" />
    <rect
       id="rect290"
       height="6"
       width="6"
       y="72"
       x="90" />
    <rect
       id="rect292"
       height="6"
       width="6"
       y="72"
       x="96" />
    <rect
       id="rect294"
       height="6"
       width="6"
       y="72"
       x="102" />
    <rect
       id="rect296"
       height="6"
       width="6"
       y="72"
       x="108" />
    <rect
       id="rect298"
       height="6"
       width="6"
       y="72"
       x="126" />
    <rect
       id="rect300"
       height="6"
       width="6"
       y="72"
       x="138" />
    <rect
       id="rect302"
       height="6"
       width="6"
       y="72"
       x="144" />
    <rect
       id="rect304"
       height="6"
       width="6"
       y="78"
       x="6" />
    <rect
       id="rect306"
       height="6"
       width="6"
       y="78"
       x="12" />
    <rect
       id="rect308"
       height="6"
       width="6"
       y="78"
       x="24" />
    <rect
       id="rect310"
       height="6"
       width="6"
       y="78"
       x="30" />
    <rect
       id="rect312"
       height="6"
       width="6"
       y="78"
       x="42" />
    <rect
       id="rect314"
       height="6"
       width="6"
       y="78"
       x="48" />
    <rect
       id="rect324"
       height="6"
       width="6"
       y="78"
       x="108" />
    <rect
       id="rect326"
       height="6"
       width="6"
       y="78"
       x="126" />
    <rect
       id="rect328"
       height="6"
       width="6"
       y="78"
       x="144" />
    <rect
       id="rect330"
       height="6"
       width="6"
       y="84"
       x="0" />
    <rect
       id="rect332"
       height="6"
       width="6"
       y="84"
       x="12" />
    <rect
       id="rect334"
       height="6"
       width="6"
       y="84"
       x="24" />
    <rect
       id="rect336"
       height="6"
       width="6"
       y="84"
       x="36" />
    <rect
       id="rect344"
       height="6"
       width="6"
       y="84"
       x="108" />
    <rect
       id="rect346"
       height="6"
       width="6"
       y="84"
       x="114" />
    <rect
       id="rect348"
       height="6"
       width="6"
       y="84"
       x="132" />
    <rect
       id="rect350"
       height="6"
       width="6"
       y="84"
       x="138" />
    <rect
       id="rect352"
       height="6"
       width="6"
       y="84"
       x="144" />
    <rect
       id="rect354"
       height="6"
       width="6"
       y="90"
       x="6" />
    <rect
       id="rect356"
       height="6"
       width="6"
       y="90"
       x="18" />
    <rect
       id="rect358"
       height="6"
       width="6"
       y="90"
       x="42" />
    <rect
       id="rect372"
       height="6"
       width="6"
       y="90"
       x="120" />
    <rect
       id="rect374"
       height="6"
       width="6"
       y="90"
       x="138" />
    <rect
       id="rect376"
       height="6"
       width="6"
       y="96"
       x="0" />
    <rect
       id="rect378"
       height="6"
       width="6"
       y="96"
       x="18" />
    <rect
       id="rect380"
       height="6"
       width="6"
       y="96"
       x="24" />
    <rect
       id="rect382"
       height="6"
       width="6"
       y="96"
       x="36" />
    <rect
       id="rect384"
       height="6"
       width="6"
       y="96"
       x="42" />
    <rect
       id="rect386"
       height="6"
       width="6"
       y="96"
       x="48" />
    <rect
       id="rect398"
       height="6"
       width="6"
       y="96"
       x="108" />
    <rect
       id="rect400"
       height="6"
       width="6"
       y="96"
       x="114" />
    <rect
       id="rect402"
       height="6"
       width="6"
       y="96"
       x="120" />
    <rect
       id="rect404"
       height="6"
       width="6"
       y="96"
       x="126" />
    <rect
       id="rect406"
       height="6"
       width="6"
       y="102"
       x="48" />
    <rect
       id="rect418"
       height="6"
       width="6"
       y="102"
       x="120" />
    <rect
       id="rect420"
       height="6"
       width="6"
       y="102"
       x="126" />
    <rect
       id="rect422"
       height="6"
       width="6"
       y="102"
       x="138" />
    <rect
       id="rect424"
       height="6"
       width="6"
       y="102"
       x="144" />
    <rect
       id="rect426"
       height="6"
       width="6"
       y="108"
       x="0" />
    <rect
       id="rect428"
       height="6"
       width="6"
       y="108"
       x="6" />
    <rect
       id="rect430"
       height="6"
       width="6"
       y="108"
       x="12" />
    <rect
       id="rect432"
       height="6"
       width="6"
       y="108"
       x="18" />
    <rect
       id="rect434"
       height="6"
       width="6"
       y="108"
       x="24" />
    <rect
       id="rect436"
       height="6"
       width="6"
       y="108"
       x="30" />
    <rect
       id="rect438"
       height="6"
       width="6"
       y="108"
       x="36" />
    <rect
       id="rect450"
       height="6"
       width="6"
       y="108"
       x="108" />
    <rect
       id="rect452"
       height="6"
       width="6"
       y="108"
       x="120" />
    <rect
       id="rect454"
       height="6"
       width="6"
       y="108"
       x="126" />
    <rect
       id="rect456"
       height="6"
       width="6"
       y="108"
       x="138" />
    <rect
       id="rect458"
       height="6"
       width="6"
       y="108"
       x="144" />
    <rect
       id="rect460"
       height="6"
       width="6"
       y="114"
       x="0" />
    <rect
       id="rect462"
       height="6"
       width="6"
       y="114"
       x="36" />
    <rect
       id="rect472"
       height="6"
       width="6"
       y="114"
       x="120" />
    <rect
       id="rect474"
       height="6"
       width="6"
       y="114"
       x="126" />
    <rect
       id="rect476"
       height="6"
       width="6"
       y="114"
       x="138" />
    <rect
       id="rect478"
       height="6"
       width="6"
       y="114"
       x="144" />
    <rect
       id="rect480"
       height="6"
       width="6"
       y="120"
       x="0" />
    <rect
       id="rect482"
       height="6"
       width="6"
       y="120"
       x="12" />
    <rect
       id="rect484"
       height="6"
       width="6"
       y="120"
       x="18" />
    <rect
       id="rect486"
       height="6"
       width="6"
       y="120"
       x="24" />
    <rect
       id="rect488"
       height="6"
       width="6"
       y="120"
       x="36" />
    <rect
       id="rect490"
       height="6"
       width="6"
       y="120"
       x="48" />
    <rect
       id="rect502"
       height="6"
       width="6"
       y="120"
       x="108" />
    <rect
       id="rect504"
       height="6"
       width="6"
       y="120"
       x="114" />
    <rect
       id="rect506"
       height="6"
       width="6"
       y="120"
       x="120" />
    <rect
       id="rect508"
       height="6"
       width="6"
       y="120"
       x="126" />
    <rect
       id="rect510"
       height="6"
       width="6"
       y="120"
       x="138" />
    <rect
       id="rect512"
       height="6"
       width="6"
       y="120"
       x="144" />
    <rect
       id="rect514"
       height="6"
       width="6"
       y="126"
       x="0" />
    <rect
       id="rect516"
       height="6"
       width="6"
       y="126"
       x="12" />
    <rect
       id="rect518"
       height="6"
       width="6"
       y="126"
       x="18" />
    <rect
       id="rect520"
       height="6"
       width="6"
       y="126"
       x="24" />
    <rect
       id="rect522"
       height="6"
       width="6"
       y="126"
       x="36" />
    <rect
       id="rect532"
       height="6"
       width="6"
       y="126"
       x="114" />
    <rect
       id="rect534"
       height="6"
       width="6"
       y="126"
       x="120" />
    <rect
       id="rect536"
       height="6"
       width="6"
       y="126"
       x="126" />
    <rect
       id="rect538"
       height="6"
       width="6"
       y="126"
       x="132" />
    <rect
       id="rect540"
       height="6"
       width="6"
       y="132"
       x="0" />
    <rect
       id="rect542"
       height="6"
       width="6"
       y="132"
       x="12" />
    <rect
       id="rect544"
       height="6"
       width="6"
       y="132"
       x="18" />
    <rect
       id="rect546"
       height="6"
       width="6"
       y="132"
       x="24" />
    <rect
       id="rect548"
       height="6"
       width="6"
       y="132"
       x="36" />
    <rect
       id="rect550"
       height="6"
       width="6"
       y="132"
       x="48" />
    <rect
       id="rect552"
       height="6"
       width="6"
       y="132"
       x="60" />
    <rect
       id="rect554"
       height="6"
       width="6"
       y="132"
       x="78" />
    <rect
       id="rect556"
       height="6"
       width="6"
       y="132"
       x="90" />
    <rect
       id="rect558"
       height="6"
       width="6"
       y="132"
       x="120" />
    <rect
       id="rect560"
       height="6"
       width="6"
       y="132"
       x="144" />
    <rect
       id="rect562"
       height="6"
       width="6"
       y="138"
       x="0" />
    <rect
       id="rect564"
       height="6"
       width="6"
       y="138"
       x="36" />
    <rect
       id="rect566"
       height="6"
       width="6"
       y="138"
       x="54" />
    <rect
       id="rect568"
       height="6"
       width="6"
       y="138"
       x="60" />
    <rect
       id="rect570"
       height="6"
       width="6"
       y="138"
       x="66" />
    <rect
       id="rect572"
       height="6"
       width="6"
       y="138"
       x="90" />
    <rect
       id="rect574"
       height="6"
       width="6"
       y="138"
       x="96" />
    <rect
       id="rect576"
       height="6"
       width="6"
       y="138"
       x="108" />
    <rect
       id="rect578"
       height="6"
       width="6"
       y="138"
       x="120" />
    <rect
       id="rect580"
       height="6"
       width="6"
       y="138"
       x="126" />
    <rect
       id="rect582"
       height="6"
       width="6"
       y="138"
       x="138" />
    <rect
       id="rect584"
       height="6"
       width="6"
       y="144"
       x="0" />
    <rect
       id="rect586"
       height="6"
       width="6"
       y="144"
       x="6" />
    <rect
       id="rect588"
       height="6"
       width="6"
       y="144"
       x="12" />
    <rect
       id="rect590"
       height="6"
       width="6"
       y="144"
       x="18" />
    <rect
       id="rect592"
       height="6"
       width="6"
       y="144"
       x="24" />
    <rect
       id="rect594"
       height="6"
       width="6"
       y="144"
       x="30" />
    <rect
       id="rect596"
       height="6"
       width="6"
       y="144"
       x="36" />
    <rect
       id="rect598"
       height="6"
       width="6"
       y="144"
       x="48" />
    <rect
       id="rect600"
       height="6"
       width="6"
       y="144"
       x="54" />
    <rect
       id="rect602"
       height="6"
       width="6"
       y="144"
       x="60" />
    <rect
       id="rect604"
       height="6"
       width="6"
       y="144"
       x="72" />
    <rect
       id="rect606"
       height="6"
       width="6"
       y="144"
       x="90" />
    <rect
       id="rect608"
       height="6"
       width="6"
       y="144"
       x="96" />
    <rect
       id="rect610"
       height="6"
       width="6"
       y="144"
       x="114" />
    <rect
       id="rect612"
       height="6"
       width="6"
       y="144"
       x="138" />
    <rect
       id="rect614"
       height="6"
       width="6"
       y="144"
       x="144" />
  </g>
</svg>
